<?xml version="1.0" standalone="no"?>
<!DOCTYPE svg PUBLIC "-//W3C//DTD SVG 20010904//EN"
 "http://www.w3.org/TR/2001/REC-SVG-20010904/DTD/svg10.dtd">
<svg version="1.0" xmlns="http://www.w3.org/2000/svg"
 width="504.000000pt" height="504.000000pt" viewBox="0 0 504.000000 504.000000"
 preserveAspectRatio="xMidYMid meet">
<metadata>
Created by potrace 1.14, written by Peter Selinger 2001-2017
</metadata>
<g transform="translate(0.000000,504.000000) scale(0.100000,-0.100000)"
fill="#000000" stroke="none">
<path d="M0 2520 l0 -2520 2520 0 2520 0 0 2520 0 2520 -2520 0 -2520 0 0
-2520z m2910 1836 c294 -42 603 -130 860 -246 63 -29 151 -68 195 -88 105 -47
168 -48 252 -3 l57 31 43 -42 c24 -23 43 -46 43 -51 0 -10 -398 -758 -410
-770 -4 -5 -40 1 -79 14 -68 22 -71 24 -77 58 -3 20 -10 52 -15 71 -28 113
-337 277 -665 355 -257 61 -446 79 -747 72 -181 -4 -253 -9 -327 -25 -231 -50
-369 -131 -423 -251 -31 -65 -30 -190 0 -246 42 -78 104 -120 255 -169 160
-53 305 -80 780 -146 241 -33 475 -67 520 -76 327 -61 616 -169 800 -298 92
-65 216 -189 257 -259 146 -249 146 -654 0 -937 -76 -147 -254 -323 -432 -428
-307 -181 -670 -255 -1247 -256 -306 0 -389 8 -680 70 -227 48 -477 121 -720
210 -245 90 -284 97 -325 61 l-30 -25 -58 41 c-38 27 -57 46 -54 56 6 22 368
905 374 911 2 2 39 -5 81 -15 l77 -20 -3 -80 c-7 -146 28 -211 162 -300 148
-98 327 -168 616 -239 259 -64 374 -80 575 -79 504 0 895 156 961 383 41 141
-15 275 -143 339 -166 83 -335 120 -928 202 -483 67 -529 75 -741 129 -334 86
-553 198 -724 369 -86 86 -137 179 -169 302 -52 205 -29 471 59 666 130 287
417 515 795 629 149 46 300 72 550 98 90 9 584 -4 685 -18z"/>
</g>
</svg>
